
<svg aria-hidden="true" style="position: absolute; width: 0; height: 0; overflow: hidden;" version="1.1" xmlns="http://www.w3.org/2000/svg" xmlns:xlink="http://www.w3.org/1999/xlink">
<defs>
<symbol id="icon-github" viewBox="0 0 32 32">
<path d="M16 0c8.837 0 16 7.344 16 16.405 0 7.246-4.579 13.394-10.933 15.565-0.811 0.162-1.099-0.35-1.099-0.787 0-0.541 0.019-2.307 0.019-4.502 0-1.53-0.512-2.528-1.086-3.037 3.563-0.406 7.307-1.794 7.307-8.094 0-1.792-0.621-3.254-1.648-4.403 0.166-0.414 0.715-2.083-0.157-4.342 0 0-1.341-0.44-4.395 1.682-1.278-0.363-2.648-0.546-4.008-0.552-1.36 0.006-2.728 0.189-4.005 0.552-3.058-2.122-4.402-1.682-4.402-1.682-0.869 2.259-0.32 3.928-0.155 4.342-1.022 1.149-1.648 2.611-1.648 4.403 0 6.285 3.736 7.693 7.29 8.107-0.458 0.41-0.872 1.133-1.016 2.194-0.912 0.419-3.229 1.144-4.656-1.363 0 0-0.846-1.576-2.453-1.691 0 0-1.56-0.021-0.109 0.997 0 0 1.048 0.504 1.776 2.4 0 0 0.939 2.928 5.39 1.936 0.008 1.371 0.022 2.664 0.022 3.054 0 0.434-0.294 0.941-1.093 0.789-6.358-2.168-10.942-8.318-10.942-15.566 0-9.061 7.165-16.405 16-16.405z"></path>
</symbol>
<symbol id="icon-telegram" viewBox="0 0 32 32">
<path d="M25.6 5.867l-21.733 8.4c-1.467 0.533-1.467 1.467-0.267 1.733l5.467 1.733 2.133 6.4c0.267 0.667 0.133 0.933 0.8 0.933 0.533 0 0.8-0.267 1.067-0.533 0.133-0.133 1.333-1.333 2.667-2.667l5.6 4.133c1.067 0.533 1.733 0.267 2-0.933l3.733-17.467c0.4-1.467-0.533-2.267-1.467-1.733zM22.8 9.867l-10.4 9.467-0.4 4.4-2.133-6.4 12.267-7.733c0.533-0.4 1.067-0.133 0.667 0.267z"></path>
</symbol>
<symbol id="icon-ukraine" viewBox="0 0 32 32">
<path fill="#005bbb" style="fill: var(--color1, #005bbb)" d="M28.444 4.444h-24.889c-1.964 0-3.556 1.592-3.556 3.556v0 8h32v-8c0-1.964-1.592-3.556-3.556-3.556v0z"></path>
<path fill="#ffd500" style="fill: var(--color2, #ffd500)" d="M32 24c0 1.964-1.592 3.556-3.556 3.556v0h-24.889c-1.964 0-3.556-1.592-3.556-3.556v0-8h32v8z"></path>
</symbol>
<symbol id="icon-facebook" viewBox="0 0 32 32">
<path d="M18.914 32v-14.4h4.372l0.714-6.4h-5.086v-3.117c0-1.648 0.042-3.283 2.345-3.283h2.332v-4.576c0-0.069-2.003-0.224-4.030-0.224-4.233 0-6.884 2.651-6.884 7.52v3.68h-4.677v6.4h4.677v14.4h6.237z"></path>
</symbol>
<symbol id="icon-send" viewBox="0 0 32 32">
<path d="M25.615 2.756c2.192-0.548 4.177 1.437 3.629 3.629l-5.17 20.682c-0.687 2.749-4.455 3.092-5.627 0.512l-2.896-6.372c-0.594-1.306-0.808-2.721-0.662-4.095-1.374 0.146-2.788-0.068-4.095-0.662l-6.372-2.896c-2.579-1.172-2.236-4.94 0.513-5.627l20.681-5.17zM11.896 14.023c1.249 0.568 2.648 0.611 3.9 0.167 0.473-0.168 0.926-0.405 1.341-0.711 0.058-0.043 0.115-0.086 0.171-0.131l3.052-2.441c0.486-0.389 1.121 0.247 0.733 0.733l-2.441 3.052c-0.045 0.056-0.089 0.114-0.131 0.171-0.305 0.416-0.543 0.868-0.711 1.341-0.444 1.252-0.401 2.651 0.167 3.9l2.896 6.372c0.128 0.281 0.538 0.243 0.613-0.056l5.17-20.681c0.060-0.239-0.157-0.455-0.395-0.395l-20.681 5.17c-0.299 0.075-0.337 0.485-0.056 0.613l6.372 2.896z"></path>
</symbol>
<symbol id="icon-school" viewBox="0 0 32 32">
<path d="M16 23.152l-10-5.714v6.151l10 5.555 10-5.555v-6.151l-10 5.714z"></path>
<path d="M32.016 12l-16.016-9.152-16.016 9.152 16.016 9.152 13-7.429v10.277h3v-11.991l0.016-0.009z"></path>
</symbol>
</defs>
</svg>